<svg class="svg-icon" style="width: 1.078125em; height: 1em;vertical-align: middle;fill: #4bb34b;overflow: hidden;" viewBox="0 0 1104 1024" version="1.1" xmlns="http://www.w3.org/2000/svg"><path d="M7.937984 7.937984 7.937984 7.937984 7.937984 7.937984ZM1024 570.40769l0-471.738543q0-7.36645-5.381953-12.764279t-12.764279-5.381953l-907.200496 0q-7.36645 0-12.764279 5.381953t-5.381953 12.764279l0 471.738543q0 7.36645 5.381953 12.764279t12.764279 5.381953l907.200496 0q7.36645 0 12.764279-5.381953t5.381953-12.764279zM1096.569054 98.653271l0 616.892527q0 37.419659-26.655752 64.075411t-64.075411 26.655752l-308.454202 0q0 20.972155 9.065178 43.944682t18.146233 40.261457 9.065178 24.671256q0 14.748775-10.779783 25.512682t-25.512682 10.779783l-290.307969 0q-14.748775 0-25.512682-10.779783t-10.779783-25.512682q0-7.937984 9.065178-24.941147t18.146233-39.689922 9.065178-44.23045l-308.454202 0q-37.419659 0-64.075411-26.655752t-26.655752-64.075411l0-616.892527q0-37.419659 26.655752-64.075411t64.075411-26.655752l907.200496 0q37.419659 0 64.075411 26.655752t26.655752 64.075411z"  /></svg>