<?xml version="1.0" encoding="iso-8859-1"?>
<!-- Generator: Adobe Illustrator 19.0.0, SVG Export Plug-In . SVG Version: 6.00 Build 0)  -->
<svg version="1.1" id="Capa_1" xmlns="http://www.w3.org/2000/svg" xmlns:xlink="http://www.w3.org/1999/xlink" x="0px" y="0px"
	 viewBox="0 0 512.003 512.003" style="enable-background:new 0 0 512.003 512.003;" xml:space="preserve">
<path style="fill:#D3DAE0;" d="M256.005,0c-81.602,0-147.754,66.151-147.754,147.754v38.717h53.28v-38.717
	c0-52.1,42.384-94.473,94.473-94.473s94.463,42.374,94.463,94.473v82.595h53.28v-82.595C403.748,66.151,337.597,0,256.005,0z"/>
<g>
	<path style="fill:#899EA8;" d="M264.624,0.261c-77.591,4.461-139.135,68.784-139.135,147.492v38.717h-17.238v-38.717
		C108.251,66.151,174.402,0,256.005,0C258.899,0,261.771,0.094,264.624,0.261z"/>
	<path style="fill:#899EA8;" d="M273.242,53.28c-2.905,0-5.779,0.139-8.619,0.397c48.064,4.368,85.844,44.882,85.844,94.076v82.595
		h17.237v-82.595C367.705,95.654,325.332,53.28,273.242,53.28z"/>
</g>
<rect x="59.345" y="230.349" style="fill:#F79F00;" width="393.313" height="281.654"/>
<rect x="59.345" y="230.349" style="fill:#E48900;" width="34.473" height="281.654"/>
<path style="fill:#3E3D4C;" d="M298.31,344.737c0-23.367-18.943-42.309-42.309-42.309s-42.309,18.942-42.309,42.309
	c0,16.094,8.988,30.088,22.216,37.24l-6.808,52.078h53.803l-6.808-52.078C289.324,374.825,298.31,360.832,298.31,344.737z"/>
<g>
</g>
<g>
</g>
<g>
</g>
<g>
</g>
<g>
</g>
<g>
</g>
<g>
</g>
<g>
</g>
<g>
</g>
<g>
</g>
<g>
</g>
<g>
</g>
<g>
</g>
<g>
</g>
<g>
</g>
</svg>
