<?xml version="1.0" encoding="iso-8859-1"?>
<!-- Generator: Adobe Illustrator 19.0.0, SVG Export Plug-In . SVG Version: 6.00 Build 0)  -->
<svg version="1.1" id="Layer_1" xmlns="http://www.w3.org/2000/svg" xmlns:xlink="http://www.w3.org/1999/xlink" x="0px" y="0px"
	 viewBox="0 0 511.999 511.999" style="enable-background:new 0 0 511.999 511.999;" xml:space="preserve">
    <g>
        <circle style="fill:#29ABE2;" cx="236.826" cy="127.869" r="117.669"/>
        <path style="fill:#29ABE2;" d="M338.717,345.202c17.112-17.112,39.301-26.032,61.719-26.801
		c-40.295-44.73-98.662-72.857-163.605-72.857c-121.583,0-220.146,98.562-220.146,220.146h313.943
		C303.149,429.718,305.828,378.09,338.717,345.202z"/>
    </g>
    <path style="fill:#FF1D25;" d="M468.486,345.202c-18.722-18.722-43.523-27.642-68.05-26.801
	c-22.417,0.769-44.606,9.688-61.719,26.801c-32.887,32.887-35.568,84.516-8.09,120.488c2.462,3.223,5.143,6.333,8.09,9.281
	c35.835,35.835,93.934,35.835,129.769,0C504.32,439.137,504.32,381.037,468.486,345.202z"/>
    <path d="M138.442,300.665c-44.203,26.408-76.425,70.141-88.403,119.988c-1.316,5.477,2.058,10.985,7.535,12.301
	c0.802,0.193,1.602,0.285,2.392,0.285c4.607,0,8.785-3.144,9.91-7.819c10.703-44.542,39.507-83.63,79.03-107.24
	c4.836-2.89,6.414-9.152,3.525-13.987C149.542,299.354,143.282,297.776,138.442,300.665z"/>
    <path d="M236.831,273.589c-15.039,0-30.019,1.745-44.522,5.188c-5.481,1.301-8.869,6.798-7.569,12.28
	c1.113,4.69,5.297,7.847,9.916,7.847c0.78,0,1.573-0.09,2.364-0.278c12.961-3.076,26.355-4.636,39.81-4.636
	c5.633,0,10.2-4.567,10.2-10.2C247.031,278.155,242.463,273.589,236.831,273.589z"/>
    <path d="M475.699,337.989c-19.549-19.549-45.125-29.477-70.801-29.801c-1.7-1.813-3.421-3.611-5.188-5.378
	c-29.765-29.765-66.243-50.374-106.018-60.428c42.052-20.966,71.01-64.417,71.01-114.511C364.703,57.364,307.34,0,236.831,0
	S108.957,57.364,108.957,127.872c0,50.094,28.958,93.545,71.01,114.511c-39.775,10.054-76.253,30.664-106.018,60.428
	C30.445,346.319,6.484,404.163,6.484,465.691c0,5.634,4.568,10.2,10.2,10.2h309.036c1.826,2.157,3.75,4.26,5.782,6.292l0,0
	c19.877,19.877,45.987,29.815,72.098,29.815c26.111,0,52.221-9.939,72.099-29.816C515.453,442.43,515.453,377.745,475.699,337.989z
	 M338.682,459.432c-24.313-31.945-21.911-77.859,7.246-107.017c29.158-29.158,75.073-31.561,107.017-7.247L338.682,459.432z
	 M129.358,127.872c0-59.26,48.212-107.472,107.473-107.472s107.472,48.212,107.472,107.472S296.09,235.345,236.831,235.345
	S129.358,187.133,129.358,127.872z M27.13,455.491c5.338-111.046,97.355-199.746,209.701-199.746
	c54.713,0,104.589,21.054,141.994,55.465c-17.353,4.318-33.783,13.241-47.322,26.78c-31.735,31.735-38.133,79.356-19.202,117.501
	H27.13z M461.274,467.759c-29.554,29.555-76.325,31.624-108.311,6.246l114.556-114.557
	C492.896,391.435,490.828,438.205,461.274,467.759z"/>
    <g>
</g>
    <g>
</g>
    <g>
</g>
    <g>
</g>
    <g>
</g>
    <g>
</g>
    <g>
</g>
    <g>
</g>
    <g>
</g>
    <g>
</g>
    <g>
</g>
    <g>
</g>
    <g>
</g>
    <g>
</g>
    <g>
</g>
</svg>